<svg width="16" height="20" viewBox="0 0 16 20" fill="none" xmlns="http://www.w3.org/2000/svg">
<g id="Group">
<path id="Vector" d="M15.9184 8.69844L11.6184 4.39844L10.8184 4.99844L14.2184 8.39844H7.31836V9.39844H14.3184L10.9184 12.7984L11.6184 13.4984L15.8184 9.29844C16.0184 9.19844 16.0184 8.89844 15.9184 8.69844Z" fill="#4D4D4D"/>
<path id="Vector_2" d="M8.71758 16.8H6.21758V2.7C6.21758 2.5 6.11758 2.3 5.91758 2.2L2.91758 1H8.71758V7.6H9.71758V0.5C9.71758 0.2 9.51758 0 9.21758 0H0.517578C0.217578 0 0.0175781 0.2 0.0175781 0.5V17.4C0.0175781 17.6 0.117578 17.8 0.317578 17.9L5.51758 20C5.61758 20 5.61758 20 5.71758 20C6.01758 20 6.21758 19.8 6.21758 19.5V17.8H9.21758C9.51758 17.8 9.71758 17.6 9.71758 17.3V10.5H8.71758V16.8ZM5.21758 18.8L1.01758 17.1V1.3L5.21758 3V18.8Z" fill="#4D4D4D"/>
<path id="Vector_3" d="M4.31758 10.3C4.48326 10.3 4.61758 10.1209 4.61758 9.9C4.61758 9.67909 4.48326 9.5 4.31758 9.5C4.15189 9.5 4.01758 9.67909 4.01758 9.9C4.01758 10.1209 4.15189 10.3 4.31758 10.3Z" fill="#4D4D4D"/>
</g>
</svg>