<svg xmlns="http://www.w3.org/2000/svg" version="1.1" width="600px" height="600px" viewBox="0 0 200 200" style="overflow:hidden!important;"><defs id="SvgjsDefs2848"><linearGradient id="SvgjsLinearGradient7273" x1="80.9656" y1="87.264" x2="80.9656" y2="114.3098" gradientUnits="userSpaceOnUse" class="svga-on-canvas-glasses-gradient-single-0-null"><stop id="SvgjsStop7274" stop-opacity="1" stop-color="#ff73b2" offset="0.004166667" ></stop><stop id="SvgjsStop7275" stop-opacity="0.8085" stop-color="#ff75ae" offset="0.1949" ></stop><stop id="SvgjsStop7276" stop-opacity="0.5986" stop-color="#ff79a0" offset="0.4039" ></stop><stop id="SvgjsStop7277" stop-opacity="0.3799" stop-color="#ff818a" offset="0.6217" ></stop><stop id="SvgjsStop7278" stop-opacity="0.1566" stop-color="#ff8b6c" offset="0.844" ></stop><stop id="SvgjsStop7279" stop-opacity="0" stop-color="#ff9452" offset="1" ></stop></linearGradient><linearGradient id="SvgjsLinearGradient7281" x1="-19.0344" y1="87.264" x2="-19.0344" y2="114.3098" gradientTransform="matrix(-1 0 0 1 100 0)" gradientUnits="userSpaceOnUse" class="svga-on-canvas-glasses-gradient-single-1-null"><stop id="SvgjsStop7282" stop-opacity="1" stop-color="#ff73b2" offset="0.004166667" ></stop><stop id="SvgjsStop7283" stop-opacity="0.8085" stop-color="#ff75ae" offset="0.1949" ></stop><stop id="SvgjsStop7284" stop-opacity="0.5986" stop-color="#ff79a0" offset="0.4039" ></stop><stop id="SvgjsStop7285" stop-opacity="0.3799" stop-color="#ff818a" offset="0.6217" ></stop><stop id="SvgjsStop7286" stop-opacity="0.1566" stop-color="#ff8b6c" offset="0.844" ></stop><stop id="SvgjsStop7287" stop-opacity="0" stop-color="#ff9452" offset="1" ></stop></linearGradient></defs><g id="svga-group-wrapper"><g id="svga-group-backs-single"><path id="SvgjsPath3085" d="M0 0h200v200H0V0z" fill="#ecf0f1" stroke-width="none" opacity="1"></path></g><g id="svga-group-humanwrap-move" transform="matrix(1,0,0,1,0,0)"><g id="svga-group-humanwrap" transform="matrix(1,0,0,1,0,0)"><g id="svga-group-hair-back-move" transform="matrix(1,0,0,1,0,0)"><g id="svga-group-hair-back" transform="matrix(1,0,0,1,0,0)"><path id="SvgjsPath4254" d="M121 39.3s4.6-18-21.5-18.6c0 0-6.7-6.5-20.5-1.7 0 0-12.7.4-19.8 11.7 0 0-15 6.3-15.9 32.4 0 0-5.2 12.7 4.4 33.8s.4 39.5-4.4 48-7.3 26.7 6.9 36.8 10.4 21.7 9.4 24.4c0 0 12.5-5 13.4-12.7s-3.1-6.5-1.7-12.1 7.1-5.4 10.2-14.4c3.1-9 0-23-1.9-31.5s-5.4-42.8 3.8-55.1 25.3-23 30.7-28.4c5.4-5.4 6.9-12.6 6.9-12.6z" fill="#1b141c" stroke-width="none" opacity="1" stroke="none"></path><path id="SvgjsPath4255" d="M101.4 30s-1.1-14.2-20.7-10.3S57 51 59.1 62.7c0 0 .4-24.5 11.5-34.3s26.3-7.6 30.8 1.6z" fill="#2a232b" stroke-width="none" opacity="1" stroke="none"></path><path id="SvgjsPath4256" d="M83.5 37.7S82 35.1 85 31.6c3-3.5 15.7-4.9 21.4-2.7s4.8 3.7 5 4.7c0 0-18-.3-27.9 4.1z" fill="#000000" stroke-width="none" opacity="1"></path></g></g><g id="svga-group-humanbody-back"><path id="SvgjsPath3152" d="m168.5 219.5-1.7-21.5s.7-9-8.8-15.3-23.4-10.1-29.5-14.2c-6.1-4.1-9.2-4.5-9-16.9s.9-40.3.9-40.3H79.6s.7 27.9.9 40.3c.2 12.4-2.9 12.8-9 16.9-6.1 4.1-20 7.9-29.5 14.2S33.2 198 33.2 198l-1.6 21.5h136.9z" fill="#f3d4cf" stroke-width="none" opacity="1" stroke="none"></path></g><g id="svga-group-chinshadow-single"><path id="SvgjsPath3570" d="M96.1 160.3c2.4 1.4 5.4 1.4 7.9 0 4.03-2.19 10.37-5.84 15.51-9.27.21-12.66.89-39.73.89-39.73H79.6s.68 26.97.89 39.66c5.16 3.45 11.55 7.13 15.61 9.34z" fill="#d4958a" stroke-width="none" opacity="0.65"></path></g><g id="svga-group-humanbody-front"><path id="SvgjsPath3153" d="M73.8 175.9c5.1 2.9 11.8 5.2 17.6 5.7.4 0 .4-.6.1-.7-2.8-1.1-5.9-1.7-8.8-2.6-2.9-.9-5.8-2-8.8-2.7-.1-.1-.3.2-.1.3zm35.2 6.2c5.3-.6 11.3-3 15.9-5.8.3-.2.1-.6-.2-.5-2.6.9-5.2 2-7.8 2.9-2.6.9-5.4 1.5-8 2.5-.5.1-.5.9.1.9z" fill="#d4958a" stroke-width="none" opacity="1" stroke="none"></path><path id="SvgjsPath3154" d="m168.4 219.4-2.1-21.4c0-2.2-.5-4.5-1.5-6.6-.9-2.1-2.3-3.9-3.9-5.5s-3.5-2.8-5.5-4c-2-1.2-4.1-2.2-6.2-3.1-4.2-1.9-8.6-3.6-12.9-5.4-2.2-.9-4.3-1.9-6.4-3-1.1-.6-2.1-1.2-3-1.9-1-.6-2-1.2-3-1.9s-2-1.5-2.8-2.6c-.8-1-1.3-2.2-1.7-3.4-.7-2.4-.8-4.8-.8-7.2 0-4.7.2-9.4.3-14.1.2-9.4.6-18.7.9-28l.6.6-20.4-.2-20.4-.1.3-.3.7 28c.1 4.7.3 9.3.4 14 0 2.4-.1 4.7-.8 7.1-.3 1.2-.9 2.3-1.6 3.3-.8 1-1.7 1.8-2.7 2.5s-2 1.3-2.9 2c-.9.6-1.9 1.3-3 1.9-2.1 1.2-4.2 2.1-6.4 3.1-4.3 1.9-8.6 3.6-12.8 5.6-2.1 1-4.2 2.1-6.1 3.2-2 1.2-3.8 2.4-5.4 4-1.6 1.6-2.9 3.4-3.8 5.4-.4 1-.8 2.1-1 3.1-.2 1.1-.4 2.2-.3 3.2v.2l-1.5 21.5-1-1.1 34 .1c11.3 0 22.7.1 34.1.2l34.2.3 34.4.5zm.2.2-34 .4-34.2.3c-11.4.1-22.9.2-34.4.2l-34.4.1h-1.1l.1-1.1 1.7-21.5v.1c-.1-5.1 2.2-9.8 5.7-13.3 1.7-1.7 3.8-3.1 5.8-4.3 2-1.2 4.2-2.2 6.3-3.2 4.3-2 8.7-3.7 13-5.4 2.1-.9 4.3-1.8 6.3-2.9 1-.5 1.9-1.1 3-1.8 1-.6 2-1.2 2.9-1.9.9-.6 1.8-1.4 2.4-2.2.7-.9 1.2-1.9 1.5-2.9.6-2.1.8-4.5.8-6.8 0-4.6-.1-9.3-.2-14l-.6-28v-.3h.3l20.4-.1 20.4-.2h.6v.6c-.1 9.3-.2 18.7-.4 28-.1 4.7-.2 9.4-.2 14 .1 2.3.2 4.6.8 6.7.3 1.1.8 2 1.4 2.9.6.8 1.4 1.6 2.4 2.2.9.6 1.9 1.3 2.9 1.9 1 .7 1.9 1.3 2.9 1.8 2 1.1 4.1 2.1 6.3 3 4.3 1.8 8.6 3.6 12.9 5.6 2.1 1 4.2 2.1 6.2 3.3 2 1.2 4 2.6 5.7 4.3 3.4 3.4 5.6 8.1 5.4 13v-.1l1.4 21.6zm-112.8-.4 1.9-13.8.1 13.8h-2zm88.6 0-1.9-13.8-.1 13.8h2z" fill="#c5796d" stroke-width="none" opacity="1" stroke="none"></path></g><g id="svga-group-clothes-single"><path id="SvgjsPath4504" d="m143.2 220 .1-3.6 26.8-2.6s-1.2-16.5-1.9-20-2.3-8.6-12.1-14-27.7-12.4-27.7-12.4c-31.6 30.5-56-.1-56.7 0 0 0-17.9 7-27.7 12.4s-11.4 10.5-12.1 14-1.9 20-1.9 20l26.8 2.6v3.6h86.4z" fill="#ecb97d" stroke-width="none" opacity="1" stroke="none"></path><path id="SvgjsPath4505" d="M170.7 213.8c-.4-5.8-.7-11.6-1.3-17.4-.3-2.9-.9-6-2.6-8.6-1.6-2.6-3.9-4.6-6.4-6.3-2.4-1.7-5.1-3.1-7.7-4.4-2.6-1.3-5.3-2.5-7.9-3.7-5.3-2.4-10.7-4.5-16.2-6.6-.2-.1-.5 0-.7.1-3.8 3.8-8 7.1-12.7 9.6-4.7 2.5-9.9 4-15.2 4.1-2.7 0-5.3-.3-7.9-.9-2.6-.7-5.1-1.7-7.4-2.9s-4.6-2.7-6.7-4.3c-1.1-.8-2.1-1.7-3.1-2.6-.5-.4-1-.9-1.4-1.4l-.7-.7-.4-.4-.2-.2-.1-.1-.1-.1s-.2-.1-.3-.1h-.1c-5.4 2.1-10.8 4.2-16.2 6.5-2.7 1.1-5.3 2.3-8 3.6-2.6 1.3-5.2 2.6-7.7 4.3-2.4 1.7-4.8 3.7-6.4 6.3-1.7 2.6-2.4 5.7-2.7 8.6-.7 5.8-1.1 11.6-1.6 17.4 0 .5.4 1 .9 1.1l13.4 1.3 12.5 1.2v2.7c0 .6.5 1 1 1 7.3 0 14.5 0 21.8-.1l21.7-.2 43-.6.2-3.5 13.2-1 13.4-1.1c.4 0 .6-.3.6-.6zm-14.1.8-13.4 1.6c-.1 0-.2.1-.2.2l.1 3.6-43.4-.6-21.5-.2c-6.8-.1-13.6-.1-20.4-.1v-2.6c0-.5-.4-1-.9-1L43.5 214 31 212.9c.4-5.4.8-10.9 1.3-16.3.3-2.9.9-5.6 2.3-7.9 1.5-2.3 3.6-4.2 5.9-5.9 2.3-1.6 4.8-3 7.4-4.3s5.2-2.6 7.8-3.8c5.2-2.4 10.5-4.6 15.8-6.8l.2.1.4.3.7.7c.5.5 1 .9 1.5 1.4 1 .9 2.1 1.8 3.1 2.6 2.2 1.6 4.4 3.1 6.8 4.4 4.8 2.5 10.2 3.9 15.6 3.9s10.8-1.5 15.7-3.9c4.7-2.4 9-5.6 12.8-9.2 5.2 2.1 10.4 4.4 15.6 6.7 2.6 1.2 5.3 2.4 7.8 3.7 2.6 1.3 5.1 2.6 7.4 4.2 2.3 1.6 4.5 3.5 6 5.8s2.2 5 2.4 7.9c.3 2.9.6 5.8.9 8.6l.7 8.1-12.5 1.4zm-100.5-7.3-.3-1.1-.4-1c-.9-2.8-2.3-5.4-3.8-7.9-1.6-2.5-3.4-4.8-5.5-6.8s-4.4-3.9-7-5.1c1.2.8 2.3 1.7 3.4 2.6 1.1.9 2.1 1.9 3.1 3 1.9 2.1 3.7 4.4 5.2 6.8.4.6.7 1.2 1.1 1.8.4.6.7 1.2 1 1.9.3.6.7 1.3 1 1.9.3.7.6 1.3.9 2l.4 1 .4 1 .7 2c.5 1.4.8 2.8 1.3 4.1-.3-1.4-.5-2.9-.9-4.3l-.6-1.9zm92.9-9.9c-1.5 2.5-2.9 5.1-3.8 7.9l-.4 1-.3 1.1-.6 2.1c-.3 1.4-.6 2.8-.9 4.3.5-1.4.8-2.8 1.3-4.1l.7-2 .4-1 .4-1c.3-.6.6-1.3.9-2 .3-.6.6-1.3 1-1.9.3-.6.6-1.3 1-1.9.4-.6.7-1.2 1.1-1.8 1.5-2.4 3.3-4.7 5.2-6.8.9-1.1 2-2.1 3.1-3 1.1-1 2.2-1.9 3.4-2.6-2.6 1.3-4.9 3.1-7 5.1-2.1 1.8-3.9 4.2-5.5 6.6z" fill="#cd8e44" stroke-width="none" opacity="1" stroke="none"></path></g><g id="svga-group-head" transform="matrix(1,0,0,1,0,0)"><g id="svga-group-ears-left-move" transform="matrix(1,0,0,1,0,0)"><g id="svga-group-ears-left" transform="matrix(1,0,0,1,0,0)"><path id="SvgjsPath3102" d="M64.2 96.3c-.2-.3-3.1-4-5.5-6.3-2.5-2.3-3.2-2.2-4.4-.8s-2.7 8.5-2.3 11.7 3.3 8.2 4.9 11c1.6 2.8 3.1 6.3 4.8 6 1.8-.3 4.2-4.3 5.3-7.3 1.2-3 .6-10.3-2.8-14.3z" fill="#f3d4cf" stroke-width="none" opacity="1" stroke="none"></path><path id="SvgjsPath3103" d="M67.9 104.8c.1.8.2 1.6.2 2.4s0 1.6-.2 2.4l-.3 1.2c-.1.4-.3.7-.4 1-.3.7-.6 1.3-.9 2-.7 1.2-1.4 2.4-2.4 3.4-.5.5-1 1-1.7 1.2-.3.1-.8.1-1.2 0-.4-.2-.7-.4-1-.7-1.2-1.2-1.8-2.6-2.5-4s-1.4-2.7-2.1-4.1c-.7-1.4-1.4-2.8-2-4.2-.3-.7-.6-1.4-.9-2.2-.3-.7-.5-1.5-.6-2.3-.2-1.6 0-3.2.1-4.7.2-1.5.4-3 .8-4.5.2-.7.4-1.5.7-2.2.1-.2.2-.3.3-.5s.2-.4.3-.5c.2-.3.5-.5.8-.7s.7-.3 1.1-.3c.4.1.7.2 1.1.4.6.4 1.1.9 1.7 1.4 2 2.1 3.7 4.5 5.6 6.8 1.8 2.5 2.9 5.6 3.5 8.7zm-9.6-14.6c-1-.8-2.2-1.7-2.9-1.2-.2.1-.4.3-.6.6-.1.1-.2.2-.2.3-.1.1-.1.3-.2.4-.3.6-.5 1.2-.7 1.9-.4 1.3-.8 2.8-1.1 4.2-.3 1.4-.5 3-.4 4.4.1.7.3 1.5.5 2.2l.9 2.1c.6 1.4 1.4 2.7 2.2 4s1.6 2.6 2.3 3.9c.4.7.7 1.3 1.1 1.9.4.6.8 1.2 1.2 1.6s.8.6 1.2.4.9-.5 1.3-1c.8-.9 1.5-2 2.2-3.2l.9-1.8c.1-.3.3-.6.4-.9l.2-.4c0-.2.1-.3.1-.5.3-1.3.3-2.8.3-4.3-.1-1.5-.3-3-.8-4.5s-1.2-2.9-2.1-4c-1.7-2.2-3.7-4.4-5.8-6.1z" fill="#e4b3ab" stroke-width="none" opacity="1" stroke="none"></path><path id="SvgjsPath3104" d="M54.1 102.4c-.2-2.1-.4-7.4.8-9 2-2.7 5.6 6.1 6.5 8.8 0 .1.1.2.1.2.1.3-.1.7-.4.6-.4-.2-.8-.6-1.2-.8-1.1-.5-1.5.4-1.2 1.7.4 1.7 1.3 2.7 2.1 4 .1.2 0 .4-.2.3-1.5-.9-3.3-4.2-2.9-6.2.3-1.8 1.8-1.7 2.9-.8-.7-1.6-1.4-3.1-2.3-4.5-.6-.9-1.1-1.9-2-2-1.1-.2-.9.3-1.1 1.7-.8 4.6-.3 9.7 2.4 13.7.1.1 0 .2-.1.1-2-2.2-3.1-4.7-3.4-7.8z" fill="#d4958a" stroke-width="none" opacity="1" stroke="none"></path></g></g><g id="svga-group-ears-right-move" transform="matrix(1,0,0,1,0,0)"><g id="svga-group-ears-right" transform="matrix(1,0,0,1,0,0)"><path id="SvgjsPath3105" d="M135.8 96.3c.2-.3 3.1-4 5.5-6.3 2.5-2.3 3.2-2.2 4.4-.8s2.7 8.5 2.3 11.7-3.3 8.2-4.9 11c-1.6 2.8-3.1 6.3-4.8 6-1.8-.3-4.2-4.3-5.3-7.3-1.2-3-.6-10.3 2.8-14.3z" fill="#f3d4cf" stroke-width="none" opacity="1" stroke="none"></path><path id="SvgjsPath3106" d="M135.7 96.3c1.8-2.3 3.5-4.7 5.6-6.8.5-.5 1-1 1.7-1.4.3-.2.7-.4 1.1-.4.4-.1.8.1 1.1.3.3.2.6.5.8.7.1.1.2.3.3.5s.2.3.3.5c.3.7.5 1.4.7 2.2.4 1.5.6 3 .8 4.5.1 1.5.3 3.1.1 4.7-.1.8-.3 1.6-.6 2.3-.3.8-.6 1.5-.9 2.2-.6 1.4-1.3 2.8-2 4.2-.7 1.4-1.4 2.7-2.1 4.1-.7 1.4-1.4 2.8-2.5 4-.3.3-.6.6-1 .7s-.9.2-1.2 0c-.7-.2-1.2-.7-1.7-1.2-1-1-1.7-2.2-2.4-3.4-.3-.6-.6-1.3-.9-2-.1-.3-.3-.7-.4-1l-.3-1.2c-.1-.8-.2-1.6-.2-2.4s.1-1.6.2-2.4c.5-3.3 1.6-6.4 3.5-8.7zm.1.1c-.9 1.1-1.6 2.5-2.1 4s-.7 3-.8 4.5 0 3 .3 4.3c0 .2.1.3.1.5l.2.4c.1.3.3.6.4.9l.9 1.8c.6 1.2 1.4 2.3 2.2 3.2.4.4.9.8 1.3 1 .4.2.8 0 1.2-.4s.8-1 1.2-1.6.8-1.3 1.1-1.9c.7-1.3 1.6-2.6 2.3-3.9.8-1.3 1.5-2.6 2.2-4l.9-2.1c.3-.7.5-1.5.5-2.2.1-1.5-.1-3-.4-4.4-.3-1.4-.6-2.9-1.1-4.2-.2-.7-.5-1.3-.7-1.9-.1-.1-.1-.3-.2-.4-.1-.1-.1-.2-.2-.3l-.6-.6c-.7-.6-1.8.4-2.9 1.2-2 1.6-4 3.8-5.8 6.1z" fill="#e4b3ab" stroke-width="none" opacity="1" stroke="none"></path><path id="SvgjsPath3107" d="M145.9 102.4c.2-2.1.4-7.4-.8-9-2-2.7-5.6 6.1-6.5 8.8 0 .1-.1.2-.1.2-.1.3.1.7.4.6.4-.2.8-.6 1.2-.8 1.1-.5 1.5.4 1.2 1.7-.4 1.7-1.3 2.7-2.1 4-.1.2 0 .4.2.3 1.5-.9 3.3-4.2 2.9-6.2-.3-1.8-1.8-1.7-2.9-.8.7-1.6 1.4-3.1 2.3-4.5.6-.9 1.1-1.9 2-2 1.1-.2.9.3 1.1 1.7.8 4.6.3 9.7-2.4 13.7-.1.1 0 .2.1.1 2-2.2 3.1-4.7 3.4-7.8z" fill="#d4958a" stroke-width="none" opacity="1" stroke="none"></path></g></g><g id="svga-group-faceshape-wrap" transform="matrix(1,0,0,1,0,0)"><g id="svga-group-faceshape-single"><path id="SvgjsPath3560" d="M100 41.3c-21.4 0-39.8 15.6-41 44.1 0 0 .1 18.1 3.7 29 3 9.1 5.4 16.1 12.9 22.2 5.2 4.2 15 9.9 20.5 12.9 2.5 1.4 5.4 1.4 7.9 0 5.5-3 15.3-8.7 20.5-12.9 7.4-6.1 9.8-13.1 12.9-22.2 3.6-10.9 3.7-29 3.7-29-1.3-28.4-19.7-44.1-41.1-44.1z" fill="#f3d4cf" stroke-width="none" opacity="1"></path><path id="SvgjsPath3561" d="M100 41.3c-21.4 0-39.8 15.6-41 44.1 0 0 .1 18.1 3.7 29 3 9.1 5.4 16.1 12.9 22.2 5.2 4.2 15 9.9 20.5 12.9 2.5 1.4 5.4 1.4 7.9 0 5.5-3 15.3-8.7 20.5-12.9 7.4-6.1 9.8-13.1 12.9-22.2 3.6-10.9 3.7-29 3.7-29-1.3-28.4-19.7-44.1-41.1-44.1zm29.8 15.5.6.9.3.5.3.5c3.2 5.1 5.3 10.9 6.4 16.8.1.4.1.7.2 1.1l.2 1.1c.1.4.1.7.2 1.1l.3 2.3.1 1.1c.1.8.1 1.5.1 2.2v.6s-.1 3.1-.1 3.9c-.1 1.5-.2 3.1-.3 4.6-.2 3.1-.5 6.2-.9 9.2l-.3 2.3-.4 2.3-.4 2.2-.5 2.2-.6 2.1-.7 2.2c-.5 1.5-1 2.9-1.5 4.4-1.1 2.9-2.3 5.6-3.8 8-1.6 2.5-3.5 4.6-5.8 6.5s-4.8 3.7-7.4 5.4c-1.3.9-2.6 1.7-3.9 2.6-1.3.8-2.6 1.7-4 2.5-1.3.8-2.7 1.6-4 2.5 0 0-1.5.8-1.8.9-.6.2-1.3.3-1.9.4-.7 0-1.3 0-2-.2-.3-.1-1.9-.8-1.9-.8-1.4-.7-2.8-1.4-4.2-2.2-1.4-.7-2.8-1.5-4.1-2.3-1.4-.8-2.7-1.6-4-2.4-1.3-.8-2.7-1.7-3.9-2.5-1.3-.9-2.6-1.8-3.8-2.7-2.4-1.9-4.5-4.2-6.2-6.8-1.7-2.6-2.9-5.4-3.9-8.3-.5-1.5-2.5-8.3-2.7-9-.7-3-1.1-6.1-1.4-9.1-.3-3.1-.5-6.2-.6-9.3-.1-1.6-.1-3.1-.2-4.7v-4s.1-2.1.2-2.8l.3-2.3.6-3.3c.59-4.01 3.5-12.8 6.7-17.9l.3-.5.3-.5.6-.9c.2-.3 1.2-1.5 1.4-1.8 1-1.2 2-2.3 3.1-3.4.3-.3.6-.5.8-.8l.9-.8c.6-.5 1.2-1 1.8-1.4.3-.2 1.5-1.1 1.9-1.3l1-.6 1-.6s1.7-.9 2-1.1l2.1-.9c.4-.2 2.2-.8 2.2-.8s1.8-.5 2.2-.6c.8-.2 3.5-.7 3.5-.7l1.2-.2c.8-.1 3.1-.2 3.5-.2 0 0 5.2.2 5.9.3l2.4.4c.8.1 1.5.3 2.3.5.4.1.8.2 1.1.3l2.2.7c.4.1 2.5 1 3.2 1.3.3.2 2 1.1 2 1.1l.5.3.5.3 1 .6c.3.2.6.4 1 .6.3.2.6.4.9.7.6.5 1.2.9 1.8 1.4l.9.8c.3.3.6.5.8.8 1.1 1 2.1 2.2 3.1 3.4.1.3 1.1 1.5 1.3 1.8z" fill="#c5796d" stroke-width="none" opacity="1"></path></g></g><g id="svga-group-mouth-single-move" transform="matrix(1,0,0,1,0,0)"><g id="svga-group-mouth-single" transform="matrix(1,0,0,1,0,0)"><path id="SvgjsPath3090" d="M86.9 128.6s2-.5 3.7-2.3c1.8-1.8 2.3-2.2 3.2-2.6 1-.4 3.2-1 4.9.4 1.6 1.3 2 .5 2.7 0s2-1.4 4.2-.6 4.3 3.4 5.6 4.1 2.2.9 2.2.9-1.7 2.4-3.1 3.8c-1.9 2-4.3 2.7-8.6 3-4.3.3-7.2-.5-9-1.7-1.9-1.2-3.5-3.2-3.9-3.6-.5-.5-1.9-1.4-1.9-1.4z" fill="#da7c87" stroke-width="none" opacity="1" transform="translate(0 3)" stroke="none"></path><path id="SvgjsPath3091" d="M86.2 128.6c1.8.9 3.6.8 5.5.4 1.4-.3 2.9-.6 4.3-.5s2.7.8 4.2.9c1.1 0 2-.4 3-.7 1.9-.6 3.5-.3 5.4.1 1.9.4 4 1 5.7-.2.3-.2.1-.6-.2-.6-2.7.5-4.7-.2-7.4-.6-2.4-.4-4.4 1.1-6.8.8-2-.2-3.5-1-5.5-.7-2.7.3-5.2 1.4-7.9.4-.4 0-.6.6-.3.7z" fill="#cb5f6c" stroke-width="none" opacity="1" transform="translate(0 3)" stroke="none"></path><path id="SvgjsPath3092" d="M109.8 130.3c-4.4.3-8.6 1.8-13 1.6-.2 0-.3.3-.1.4 4.3 1.1 9.6 1.4 13.2-1.8.1-.1 0-.2-.1-.2z" fill="#e99ca5" stroke-width="none" opacity="1" transform="translate(0 3)" stroke="none"></path></g></g><g id="svga-group-eyes-left-move" transform="matrix(1,0,0,1,0,0)"><g id="svga-group-eyes-left" transform="matrix(1,0,0,1,0,0)"><g id="svga-group-eyesback-left"><path id="SvgjsPath5685" d="M90.9 101.3s-.3-2.5-1-3.8-3.7-4.4-7-5c-4.9-1-9.3 1.7-9.3 1.7s0 2.4 1.5 4.1c1.4 1.7 3.9 2.6 4.9 2.7s4.6.3 6.5 0c1.3-.2 2.8-.2 3.4 0 .5.2 1 .3 1 .3z" fill="#ffffff" stroke-width="none" opacity="1"></path></g><g id="svga-group-eyesiriswrapper-left" transform="matrix(1,0,0,1,0,0)"><g id="svga-group-eyesiriscontrol-left" transform="matrix(1,0,0,1,0,0)"><g id="svga-group-eyesiris-left" transform="matrix(1,0,0,1,0,0)"><path id="SvgjsPath5903" d="M82 91.3c2.8 0 5.2 2.3 5.2 5.2s-2.3 5.2-5.2 5.2-5.2-2.3-5.2-5.2 2.3-5.2 5.2-5.2z" fill="#4e60a3" stroke-width="none" opacity="1"></path><path id="SvgjsPath5904" d="M82 92.9c2 0 3.6 1.6 3.6 3.6S83.9 100 82 100s-3.6-1.6-3.6-3.6 1.6-3.5 3.6-3.5z" fill="#000000" stroke-width="none" opacity="1"></path><path id="SvgjsPath5905" d="m78.2 94 4 2.9-1.6-4.7c-.3-.4-2.3.7-2.4 1.8z" fill="#ffffff" stroke-width="none" opacity="1"></path></g></g></g><g id="svga-group-eyesfront-left"><path id="SvgjsPath5693" d="M70.73 98.03c0 6.9 4.93 12.5 11.02 12.5s11.02-5.6 11.02-12.5-4.93-12.5-11.02-12.5-11.02 5.59-11.02 12.5zm2.88-3.78s4.42-2.71 9.34-1.75c3.29.64 6.2 3.74 6.95 5.03.75 1.28 1.03 3.82 1.03 3.82s-.53-.14-1.11-.32c-.57-.18-2.05-.19-3.39.04-1.89.32-5.46.18-6.45.04-1-.14-3.49-1.07-4.92-2.75-1.41-1.69-1.45-4.11-1.45-4.11z" fill="#f3d4cf" stroke-width="none" opacity="1"></path><path id="SvgjsPath5694" d="M73.27 94.64c-.1.42-.12.84-.06 1.25-.57-.03-1.21.05-1.59.44-.14.14.01.33.18.3.3-.05.58-.2.88-.27.21-.05.42-.06.63-.05.06.21.13.42.22.63-.18.06-.35.14-.5.21-.38.17-.75.42-.99.76-.11.15.09.28.22.22.35-.16.68-.38 1.03-.55.15-.07.32-.12.49-.18.16.28.35.54.56.8-.41.24-.78.58-.9 1.03-.03.1.09.21.19.15.36-.24.65-.57.96-.88 1.11 1.22 2.67 2.16 3.92 2.57 1.88.62 3.93.72 5.89.62 1.85-.09 4.72-1.14 6.43-.21.07.04.13.02.17-.02l.03-.03c.01-.02.02-.04.02-.06 0-.01.01-.01.01-.03-.1-4.06-2.64-7.49-6.4-8.97-2.08-.82-4.37-1.02-6.58-.69-2.59.39-4.87 1.66-7.54 1.44-.23-.02-.34.3-.18.44.9.88 1.89 1.13 2.91 1.08zm.67-.07c1.99-.32 4.11-1.54 6.09-1.68 5.13-.36 10.05 3 10.7 8.24-2.39-.82-5.13-.1-7.59-.15-2.01-.04-4.14-.32-5.91-1.34-2.21-1.28-2.61-2.93-3.29-5.07z" fill="#000000" stroke-width="none" opacity="1"></path></g></g></g><g id="svga-group-eyes-right-move" transform="matrix(1,0,0,1,0,0)"><g id="svga-group-eyes-right" transform="matrix(1,0,0,1,0,0)"><g id="svga-group-eyesback-right"><path id="SvgjsPath5686" d="M109.1 101.3s.3-2.5 1-3.8 3.7-4.4 7-5c4.9-1 9.3 1.7 9.3 1.7s0 2.4-1.5 4.1c-1.4 1.7-3.9 2.6-4.9 2.7s-4.6.3-6.5 0c-1.3-.2-2.8-.2-3.4 0-.5.2-1 .3-1 .3z" fill="#ffffff" stroke-width="none" opacity="1"></path></g><g id="svga-group-eyesiriswrapper-right" transform="matrix(1,0,0,1,0,0)"><g id="svga-group-eyesiriscontrol-right" transform="matrix(1,0,0,1,0,0)"><g id="svga-group-eyesiris-right" transform="matrix(1,0,0,1,0,0)"><path id="SvgjsPath5906" d="M118 91.3c2.8 0 5.2 2.3 5.2 5.2s-2.3 5.2-5.2 5.2-5.2-2.3-5.2-5.2 2.4-5.2 5.2-5.2z" fill="#4e60a3" stroke-width="none" opacity="1"></path><path id="SvgjsPath5907" d="M118 92.9c2 0 3.6 1.6 3.6 3.6S120 100 118 100s-3.6-1.6-3.6-3.6 1.7-3.5 3.6-3.5z" fill="#000000" stroke-width="none" opacity="1"></path><path id="SvgjsPath5908" d="m114.2 94 4 2.9-1.6-4.7c-.2-.4-2.2.7-2.4 1.8z" fill="#ffffff" stroke-width="none" opacity="1"></path></g></g></g><g id="svga-group-eyesfront-right"><path id="SvgjsPath5695" d="M118.26 85.53c-6.08 0-11.02 5.6-11.02 12.5s4.93 12.5 11.02 12.5 11.02-5.6 11.02-12.5-4.94-12.5-11.02-12.5zm6.67 12.82c-1.43 1.68-3.92 2.6-4.92 2.75-1 .14-4.56.29-6.45-.04-1.34-.23-2.82-.21-3.39-.04-.57.18-1.11.32-1.11.32s.29-2.53 1.03-3.82c.75-1.28 3.66-4.38 6.95-5.03 4.92-.96 9.34 1.75 9.34 1.75s-.03 2.43-1.45 4.11z" fill="#f3d4cf" stroke-width="none" opacity="1"></path><path id="SvgjsPath5698" d="M129.64 93.58c.15-.15.04-.46-.18-.44-2.68.22-4.96-1.05-7.54-1.44-2.21-.33-4.49-.13-6.58.69-3.76 1.48-6.31 4.91-6.4 8.97 0 .01.01.02.01.03 0 .02.01.04.02.06l.03.03c.04.04.1.06.17.02 1.71-.93 4.58.11 6.43.21 1.96.1 4.02-.01 5.89-.62 1.25-.41 2.81-1.35 3.92-2.57.31.31.6.64.96.88.1.06.22-.04.19-.15-.12-.45-.5-.79-.9-1.03.21-.26.4-.52.56-.8.17.06.34.11.49.18.35.17.68.39 1.03.55.13.06.33-.07.22-.22-.25-.34-.61-.59-.99-.76-.15-.07-.32-.15-.5-.21.09-.21.17-.42.22-.63.21 0 .42.01.63.05.3.07.58.21.88.27.17.03.31-.16.18-.3-.38-.39-1.02-.48-1.59-.44.06-.41.04-.83-.06-1.25 1.02.03 2.01-.22 2.91-1.08zm-6.87 6.06c-1.77 1.03-3.9 1.3-5.91 1.34-2.46.05-5.21-.67-7.59.15.65-5.24 5.56-8.6 10.7-8.24 1.98.14 4.1 1.36 6.09 1.68-.68 2.14-1.08 3.79-3.29 5.07z" fill="#000000" stroke-width="none" opacity="1"></path></g></g></g><g id="svga-group-facehighlight-single"></g><g id="svga-group-eyebrows-left-move" transform="matrix(1,0,0,1,0,0)"><g id="svga-group-eyebrows-left-rotate" transform="matrix(1,0,0,1,0,0)"><g id="svga-group-eyebrows-left" transform="matrix(1,0,0,1,0,0)"><path id="SvgjsPath6204" d="M72.9 84.2c.1-.2.4-.3.6-.4.2-.1.4-.2.6-.2.4-.2.8-.4 1.2-.5.5-.1 1.2-.5 1.7-.2 1.6-.6 3.7-.2 5.1.6 1.9.2 3.9.8 5.3 1.8.1.1.2.2.2.3.3.1.5.2.8.3 1 .4 2.1.7 3.1 1.2.1 0 .2.1.3.1.3.1.4.7.2.8-.1.1-.1.2-.2.3-.8.6-1.8.2-2.6-.1-.7-.3-1.5-.6-2-1.2-.8-.3-1.4-.7-2.1-1.1-.1 0-.2-.1-.3-.1-1.2-.2-2.5-.7-3.7-1.3-.7-.1-1.3-.3-2-.3-.9-.1-1.8.2-2.8-.1h-.1c-.2.1-.4.1-.6.2-.8.2-1.5.4-2.3.4-.1 0-.2-.1-.2-.2H73s-.2-.1-.1-.3z" fill="#2a232b" stroke-width="none" opacity="1"></path><path id="SvgjsPath6205" d="M77.4 82.3c3.1-.2 6.2 1.5 9 2.6 1.7.7 5.2.9 5.9 3 .1.3-.3.4-.5.2-.9-1.2-2.4-1.4-3.8-1.8-1.2-.4-2.3-.8-3.5-1.3-2.4-1-4.8-1.6-7.3-2.2-.1-.1 0-.4.2-.5z" fill="#3a353a" stroke-width="none" opacity="1"></path><path id="SvgjsPath6206" d="M93.3 87.9c.3-1.4-1.8-1.9-2.8-2.3-2.4-1-4.9-2.1-7.4-2.8-1.5-.4-3.1-.7-4.6-.7-1.2 0-2.3.1-3.5.5-2 .6-3.9 1.8-5.6 3.1-.9.5-1.8 1.2-2.5 1.9-.1.1 0 .3.2.2 0 0 .1 0 .1-.1 0 .1.1.1.2.1 1.5-.7 2.8-1.6 4.3-2.2 1.5-.6 3.1-1 4.7-1.1h.7c1.9 0 3.7.4 5.4 1.2 2.4 1.1 4.6 2.6 7 3.5.4.2.9.2 1.4.2 1.1 0 2.2-.4 2.4-1.5zM78.5 83c1.6 0 3.2.4 4.8.9 2 .7 4 1.6 6 2.4.4.2 2.4.7 2.6 1.2.2.6-.2.8-.8.9-.3 0-.6-.1-.8-.1-.6-.2-1.2-.6-1.7-.9-3.1-1.6-6.3-3.5-9.8-3.7h-1c-1.1 0-2.3.1-3.5.3.5-.2 1-.4 1.6-.6.8-.3 1.7-.4 2.6-.4z" fill="#1b141c" stroke-width="none" opacity="1"></path></g></g></g><g id="svga-group-eyebrows-right-move" transform="matrix(1,0,0,1,0,0)"><g id="svga-group-eyebrows-right-rotate" transform="matrix(1,0,0,1,0,0)"><g id="svga-group-eyebrows-right" transform="matrix(1,0,0,1,0,0)"><path id="SvgjsPath6207" d="M127.1 84.2c-.1-.2-.4-.3-.6-.4-.2-.1-.4-.2-.6-.2-.4-.2-.8-.4-1.2-.5-.5-.1-1.2-.5-1.7-.2-1.6-.6-3.7-.2-5.1.6-1.9.2-3.9.8-5.3 1.8-.1.1-.2.2-.2.3-.3.1-.5.2-.8.3-1 .4-2.1.7-3.1 1.2-.1 0-.2.1-.3.1-.3.1-.4.7-.2.8.1.1.1.2.2.3.8.6 1.8.2 2.6-.1.7-.3 1.5-.6 2-1.2.8-.3 1.4-.7 2.1-1.1.1 0 .2-.1.3-.1 1.2-.2 2.5-.7 3.7-1.3.7-.1 1.3-.3 2-.3.9-.1 1.8.2 2.8-.1h.1c.2.1.4.1.6.2.8.2 1.5.4 2.3.4.1 0 .2-.1.2-.2h.1s.2-.1.1-.3z" fill="#2a232b" stroke-width="none" opacity="1"></path><path id="SvgjsPath6208" d="M122.6 82.3c-3.1-.2-6.2 1.5-9 2.6-1.7.7-5.2.9-5.9 3-.1.3.3.4.5.2.9-1.2 2.4-1.4 3.8-1.8 1.2-.4 2.3-.8 3.5-1.3 2.4-1 4.8-1.6 7.3-2.2.1-.1 0-.4-.2-.5z" fill="#3a353a" stroke-width="none" opacity="1"></path><path id="SvgjsPath6209" d="M109 89.3c.5 0 1-.1 1.4-.2 2.4-.9 4.7-2.4 7-3.5 1.8-.8 3.6-1.2 5.4-1.2h.7c1.6.1 3.2.5 4.6 1.1 1.5.6 2.9 1.6 4.3 2.2.1 0 .2 0 .2-.1 0 0 .1 0 .1.1.2.1.3-.1.2-.2-.7-.7-1.6-1.4-2.5-1.9-1.7-1.3-3.6-2.4-5.6-3.1-1.1-.4-2.3-.5-3.5-.5-1.6 0-3.1.3-4.6.7-2.5.7-5 1.8-7.4 2.8-.9.4-3.1.9-2.8 2.3.4 1.2 1.5 1.6 2.5 1.5zm15.2-5.9c.5.2 1.1.3 1.6.6-1.2-.2-2.3-.3-3.5-.3h-1c-3.5.2-6.8 2.2-9.8 3.7-.6.3-1.1.7-1.7.9-.2.1-.5.1-.8.1-.5 0-1-.2-.8-.9.2-.5 2.2-1 2.6-1.2 2-.8 4-1.7 6-2.4 1.6-.5 3.2-.9 4.8-.9.8 0 1.7.1 2.6.4z" fill="#1b141c" stroke-width="none" opacity="1"></path></g></g></g><g id="svga-group-nose-single-move" transform="matrix(1,0,0,1,0,0)"><g id="svga-group-nose-single" transform="matrix(1,0,0,1,0,0)"><path id="SvgjsPath3247" d="M97.72 89.37c-.8 3.33-.91 6.89-1.27 10.29-.38 3.64-1.08 7.4-1.03 11.06 0 .29.45.37.52.07.74-3.34.83-6.91 1.18-10.31.37-3.64 1.05-7.41.93-11.06 0-.19-.28-.24-.33-.05z" fill="#c5796d" stroke-width="none" opacity="1" transform="translate(0 2)" stroke="none"></path><path id="SvgjsPath3248" d="M94.71 108.8c-.98 1.31-1.8 2.73-2.52 4.2-.46.95-1.04 2.07-.73 3.16.5 1.8 2.79 2.36 4.28 1.51.44-.26.24-.95-.26-.95-.87-.01-1.89.27-2.58-.47-.84-.89-.01-2.5.36-3.4.55-1.32 1.22-2.59 1.74-3.92.07-.19-.19-.26-.29-.13z" fill="#c5796d" stroke-width="none" opacity="1" transform="translate(0 2)" stroke="none"></path><path id="SvgjsPath3249" d="M94.57 116.21c2.7-.2 3.21 3.2 5.78 3.28 2.2.07 2.37-3.24 4.46-3.14.24.01.32-.33.12-.45-2.37-1.4-2.81 2.72-4.99 2.46-1.29-.15-2.21-2.05-3.37-2.6-.79-.37-1.36-.34-2.13.01-.19.11-.09.46.13.44z" fill="#c5796d" stroke-width="none" opacity="1" transform="translate(0 2)" stroke="none"></path><path id="SvgjsPath3250" d="M104.07 117.75c1.78.4 3.85-.15 4.27-2.13.21-.99-.12-1.97-.64-2.81-.84-1.37-1.93-2.53-2.73-3.95-.13-.24-.47-.12-.48.13-.1 1.59 1.08 2.69 1.92 3.92.78 1.13 1.45 2.69.14 3.81-.6.51-1.74.42-2.48.56-.24.05-.23.42 0 .47z" fill="#c5796d" stroke-width="none" opacity="1" transform="translate(0 2)" stroke="none"></path><path id="SvgjsPath3251" d="M102.32 112.41c-.39-.7-1.4-.81-1.96-.25-.05.05-.23.28-.28.34-.06.08-.19.25-.21.28-.06.1-.12.2-.17.3l-.11.26c0-.01-.01.01-.03.05-.06.06-.12.13-.17.19-.17.18-.34.36-.48.57-.4.63-.08 1.35.46 1.75.83.62 2.03.12 2.61-.58.7-.84.89-1.92.34-2.91z" fill="#fbe5e2" stroke-width="none" opacity="1" transform="translate(0 2)" stroke="none"></path></g></g><g id="svga-group-hair-front" transform="matrix(1,0,0,1,0,0)"><path id="SvgjsPath4250" d="M137.8 95.9s3.1-2.7 4.3-7 0-9.9 0-9.9 1.7-5.1-2.2-13.5c0 0 0-6.5-4.3-11.8 0 0 .5-9.1-11.1-14.9 0 0-2.7-3.4-8.7-3.6 0 0-4.1-3.4-10.3-3.4 0 0-4.3-1.7-8.7 0 0 0-3.4-1-5.8 1 0 0-2.9.5-6 3.4 0 0-3.1-.5-5.5 1.2 0 0-2.4.2-6.7 5S67.5 52 67.5 52s-4.6 1-4.8 9.1c0 0-2.9 2.7-2.9 8.4 0 0-2.4 1.9-1.7 7.9 0 0-1.4 6.5.5 11.8 1.9 5.3 3.1 3.1 3.1 3.1s1.9-2.2 1.9-5.8c0 0 2.9-4.3 2.4-8.4 0 0 2.5-1.9 2.5-4.5 0 0 3.6-2.9 3-5.3 0 0 3.7-.2 5.6-5 0 0 3.2.3 8-3 0 0 14.5 9.2 33 .4 0 0 3.2 3 7.3 2.8 0 0 2.6 7 6.3 7 0 0 2.2 4.6 4.3 4.6 0 0-.5 6.3 1.4 9.9.2.1-.5 8.2.4 10.9zm-37.1-74.1s14.3.7 18.7 12.7c0 0-4-6.6-18.7-12.7zm-42.2 11s-18.8 23.4-2.4 50.4c0 0-5.1-14.7-3.1-28.7 2-14 5.5-21.7 5.5-21.7zm-15.1 34S45.9 79 52 88.6c0 0-9.5-8.6-8.6-21.8z" fill="#2a232b" stroke-width="none" opacity="1" stroke="none"></path><path id="SvgjsPath4251" d="M69.5 142s11.4 14.3 6.2 32.9c-2.8 10.3-2.3 14.1-.8 19 1.6 4.8-8.9 5.6-11.8 8.4-2.9 2.8-4 5-3.6 7.5 0 0-3.3-5 .3-10.7s-10.5-16.6-14.3-21.4c-2.8-3.5-2.6-12.9-1-19.4.1-7.9 2.6-14.9 4.9-15.7.4 0 8.8 3.6 20.1-.6zm-8.1-56.6c0 .5.2 1 .5 1.4.1.1.2 0 .1-.1-.3-.4-.5-.8-.5-1.2 0-.1-.1-.1-.1-.1zm15.2-42.6c.1-.3-.3-.5-.5-.2-3.4 5.2-5.8 16.9 1.1 20.5.3.2.7-.3.4-.5-5.4-5.1-3.4-13.6-1-19.8zM63.7 85.9c-.9-1.9-1.9-3.8-2.4-5.9-.5-1.9-.5-3.8-.8-5.6-.1-.3-.5-.2-.5 0-.9 3.9.8 8.9 3.3 11.9.2.2.5-.1.4-.4zm4.6-12.8c.4.1.8-.3.5-.6-3.8-3.2-3.7-7-4.7-11.5-.1-.5-.7-.3-.8.1-.4 4.2.7 10.1 5 12zm3.6-5c.3.1.7-.2.4-.5-4.4-4.1-3.3-9.8-3.2-15.3 0-.4-.6-.4-.7-.1-1.7 4.6-1.8 13.5 3.5 15.9zm-6.2 9.3c-1.6-2.6-2.2-5.2-2.8-8.1-.1-.3-.5-.2-.6.1-.2 3 1.1 6 2.9 8.4.2.2.7-.1.5-.4zM83 39.8c.1-.2-.2-.4-.4-.2-3.1 4.9-3.8 15.8 1.1 19.9.3.2.7 0 .5-.4-2.5-5.7-3.9-13.4-1.2-19.3zm23-5.3c5.3 9.3 6.6 18.3-1.4 26.3-.3.3.1.7.4.5 11.1-4.7 6.3-19.8 1.2-27-.1-.1-.3 0-.2.2zm30.4 22.4c-.1-.5-.7-.3-.8.1-.3 2.3-.3 4.6-1 6.9-.7 2.2-2 4.2-3.2 6.2-.2.3.2.6.5.4 3.5-3 5.8-9.1 4.5-13.6zm-12.2-13.2c.8 3.1 2 6 2.1 9.3.2 3.2-.4 6.4-1.2 9.5-.1.3.4.6.6.2 2.7-5.8 2.8-14-1-19.3-.2-.2-.6-.1-.5.3zm15.4 23.5c0-.2-.4-.4-.5-.1-.5 2.8-1.1 5.3-2.5 7.8-.1.2.2.5.4.3 1.8-2.2 2.9-5.1 2.6-8zm1.4 11.6c-1.2 1.7-2.1 3.8-3 5.7-.1.3.2.5.4.3 1.3-1.7 2.5-3.8 2.8-5.9.2-.2-.1-.3-.2-.1zm-46.7-39c0-.2-.3-.2-.3 0-.1 7.3 2.1 14.4 5.8 20.6.1.2.4 0 .3-.2-3.5-6.5-5.1-13.1-5.8-20.4zm21.5-2.7c2.1 3.7 3.6 7.4 3.9 11.7.3 3.4-.6 6.6-.9 9.9 0 .3.5.4.6.2 3.8-6.6 1.4-16.4-3.2-22-.2-.3-.5-.1-.4.2zm-25.5-3.3c.1-.3-.4-.5-.5-.2-3.9 7.3-4.1 21.2 3 26.8.3.3.8-.2.5-.5-6.1-6.6-5.9-18.2-3-26.1zm6.9-.7c.5 2 1.4 3.9 2 5.9.6 2 1 4 1.6 6 .1.3.6.3.6-.1-.3-3.9-1.6-8.7-3.9-11.9 0-.2-.3-.2-.3.1z" fill="#1b141c" stroke-width="none" opacity="1" stroke="none"></path><path id="SvgjsPath4252" d="M53.7 120.5s-.5 13-6.8 24.6-5 24.1 2.7 33.7 14.3 14.8 11.8 20c-2.5 5.2-2.3 8.2-2.3 8.2s.7-4.8 4.8-8.9 2.3-8.6-6.2-15.7c-8.4-7.1-13.2-13.7-11.8-22.5 1.4-8.9 7.5-15.7 8.9-21.2 1.4-5.5-1.1-18.2-1.1-18.2zm7.5 16.6s-.5 14.8-4.1 22.8 1.4 15 6.2 19.4c4.8 4.3 6.6 7.7 7.3 10.7.7 3-2.5 5.2-3.6 6.8 0 0 5.5-1.4 5-7.3s-7.5-9.8-10-19.6c-2.6-9.8 2-12.1-.8-32.8zm7.1 7.5s-.5 9.8 2.1 16.2c2.5 6.4 4 13.2 2.4 20.2 0 0 2.2-4 2.6-14.3.5-10.2-3.5-7.5-7.1-22.1z" fill="#2a232b" stroke-width="none" opacity="1" stroke="none"></path><path id="SvgjsPath4253" d="M111.3 36.1c-.2-.2-.6.2-.4.4 2.6 3.6 5 6.6 5.6 11.2.8 5.6-1 11.2-6 14.2-.2.1 0 .3.2.3 9.7-4.5 9.2-20.7.6-26.1zm.8 3.1c-.1-.3-.6-.2-.5.1 2.1 8.4 3.6 18.2-5.5 23.1-.2.1-.1.5.2.5 9.3-4 9-15.7 5.8-23.7zm8.2.8c-.2-.3-.7 0-.5.3 3.4 7 5.8 13.5 2.3 21.1-.2.3.3.6.5.3 4.4-6.8 2.2-15.6-2.3-21.7zm10.1 5.1c-.1-.3-.6-.2-.5.1.4 1.4.8 2.7 1.1 4.1-.9-2.7-2.2-5.2-3.9-7.2-.1-.2-.4 0-.3.2 4.1 7 4.8 13.5 3.4 21.4-.1.4.5.6.6.2.9-2.4 1.4-5 1.3-7.6.1.3.6.2.6-.2.2-3.8-.9-7.6-2.3-11zm-26.2-9.5c-.1-.3-.6-.2-.5.1 1.8 5.6 2.5 11.2 2.4 17 0 .3.4.3.5 0 .8-5.8-.1-11.6-2.4-17.1zm-1 13.5c0-.3-.4-.3-.4 0 0 2.4-.2 4.8-.2 7.1 0 .3.4.3.5.1.4-2.4.4-4.8.1-7.2zM99 60.9c-4.8-7.7-7.1-14.6-6-23.7 0-.2-.2-.2-.3 0-2.1 8-.1 18.1 6 24 .1.1.4-.1.3-.3zm-2.5.6c-3.1-4.2-5.4-8.5-6.1-13.7 0-.3-.5-.2-.5.1.5 5.2 2.4 10.3 6.2 13.9.2.2.6-.1.4-.3zm-9.3-3.7c-3.7-5.5-5-11.4-3.8-18 .1-.3-.3-.4-.4-.1-2 6.3-.7 13.4 3.8 18.4.2.3.6 0 .4-.3zm-8.1 3c-4.9-6.1-3.7-13.1-.6-19.7.1-.2-.2-.5-.4-.2-3.6 6.2-5.4 14.9.7 20.2.2.2.5-.1.3-.3zm58.4 1c0-.3-.6-.4-.6 0 .1 3.2-.6 6.1-1.1 9.2-.1.4.5.7.6.3 1.3-2.9 1.4-6.4 1.1-9.5zm2.3 9.8c0 1.9-.5 3.5-1.1 5.3-.1.3.3.4.4.2 1-1.6 1.3-3.6 1.3-5.5 0-.4-.6-.4-.6 0zM71 49.2c.1-.2-.3-.4-.4-.2-2.2 4.7-1.2 10.1 1 14.6.1.2.5.1.4-.2-1.6-4.8-2.3-9.2-1-14.2zm-5.4 6.3c0-.2-.3-.3-.4 0-.8 4.1 0 8 1.3 11.9.1.2.3.1.3-.1-.8-4-1.7-7.8-1.2-11.8zm-2.9 8.7c0-.3-.5-.3-.5 0-.3 2-.1 4 .7 5.8.1.2.5.1.4-.2-.4-1.8-.7-3.6-.6-5.6zM61 70c0-.3-.4-.3-.5 0-.4 2.8-.1 5.9 1 8.5.1.3.6.1.5-.2-.5-2.8-1-5.5-1-8.3zm34.2-44.6c-12.3-6-27.2 3.4-29.5 16.2-.1.4.4.5.6.2C68.1 36.1 71.4 31 76.6 28c6-3.4 11.8-3.2 18.4-2.1.3.1.6-.4.2-.5zm17.1 5.4c-1.9-2.9-4.9-5.1-8.1-6.6-.3-.1-.5.2-.2.4 3 1.8 5.5 4 8 6.4.2.2.5 0 .3-.2zm-61.6 10c-6.7 9.9-6.1 26-.9 36.3.1.2.4.1.3-.1-4.4-10.7-5.3-25.7.9-36 .1-.2-.2-.4-.3-.2zm15-14.1C55.5 36.8 54.5 52.7 55 66.2c0 .4.5.4.6 0 .9-14.1 1-27.7 10.4-39.2.2-.2-.1-.5-.3-.3zm-6.6 151.2c-2.1-2-4.2-3.7-5.5-6.3-1.7-3.5-1.4-7.5-.5-11.1 1.3-5.5 4.1-10.5 5.3-16 1.1-4.9 1.1-10 0-14.8-.1-.4-.7-.3-.7.1.5 6.4.1 12.5-2.1 18.6-1.7 4.7-4.1 9.2-4.7 14.3-.4 3.8.2 7.8 2.4 10.9 3.2 4.6 10 6.6 10 13.1 0 .1.1.1.1 0 0-3.7-1.8-6.4-4.3-8.8zm11.1-.5c-3.5-7.5-3.8-14-3.4-22.2.2-5.1 0-9.9-2.7-14.3-.1-.2-.5-.1-.4.2 5 12-2.5 25.6 6.1 36.7.2.3.5-.1.4-.4z" fill="#3a353a" stroke-width="none" opacity="1" stroke="none"></path></g><g id="svga-group-glasses-single-move" transform="matrix(1,0,0,1,0,0)"><g id="svga-group-glasses-single" transform="matrix(1,0,0,1,0,0)"></g></g></g></g></g><rect id="svga-credit-rect" width="200" height="15" x="0" y="185" fill="#ecf0f1" opacity="0.5" style="display: none;"></rect><text id="svga-credit-text" font-family="Avenir Next, Roboto, Helvetica, Arial, sans-serif" font-size="10px" text-anchor="start" font-weight="400" size="10px" anchor="start" weight="400" fill="#333333" x="33.40447998046875" y="182.60824704170227" style="display: none;"><tspan id="SvgjsTspan2896" dy="13" x="33.40447998046875">Created on AvatarMaker.com</tspan></text></g></svg>