<svg width="21" height="20" viewBox="0 0 21 20" fill="none" xmlns="http://www.w3.org/2000/svg"><path d="M8.41238 0.012043C6.82309 0.112156 5.20043 0.717003 3.96153 1.66808C1.96345 3.21565 0.833008 5.54328 0.833008 8.12118C0.833008 9.96075 1.39614 11.6418 2.49321 13.0642C2.84361 13.5231 3.56108 14.2406 4.0241 14.5951C5.71768 15.9008 7.94936 16.4681 10.1018 16.1385C11.4366 15.93 12.7089 15.3835 13.8185 14.5409L14.1355 14.3031L16.9679 17.1063C19.187 19.3046 19.8378 19.9261 19.9629 19.9679C20.2632 20.068 20.5427 19.9303 20.6971 19.6091C20.8764 19.242 21.0057 19.3964 17.8939 16.2512C16.3588 14.6953 15.0991 13.4105 15.0991 13.398C15.0991 13.3813 15.1992 13.2353 15.3243 13.0684C16.8302 11.0912 17.3266 8.58837 16.7092 6.09807C16.071 3.54102 14.1605 1.42196 11.6619 0.508436C10.6399 0.133013 9.44271 -0.0505276 8.41238 0.012043ZM10.0184 1.33854C11.3615 1.55962 12.5337 2.11441 13.5307 3.01126C14.9489 4.27518 15.7456 6.11058 15.7498 8.10032C15.754 9.66459 15.3035 11.0453 14.3816 12.2717C14.0604 12.7055 13.3346 13.4146 12.9049 13.7233C11.7662 14.5409 10.398 14.9747 8.95466 14.9789C7.64068 14.9831 6.46018 14.6619 5.36728 14.0111C4.67067 13.594 3.79468 12.7848 3.31497 12.109C2.18453 10.5155 1.80494 8.48409 2.26796 6.45263C2.43481 5.70179 2.84778 4.79243 3.31497 4.12918C3.64451 3.66616 4.39118 2.91531 4.84586 2.58995C5.95128 1.79739 6.94823 1.43031 8.47495 1.26345C8.72941 1.23425 9.65128 1.28014 10.0184 1.33854Z" fill="black"/></svg>