<svg width="254" height="131" viewBox="0 0 254 131" fill="none" xmlns="http://www.w3.org/2000/svg"><path d="M108.87 130.22H21.25C15.6096 130.207 10.2047 127.957 6.22094 123.964C2.23722 119.971 -1.55404e-05 114.56 0 108.92V21.3C0 15.6509 2.2441 10.2331 6.23863 6.23862C10.2332 2.2441 15.6509 0 21.3 0H108.92C114.569 0 119.987 2.2441 123.981 6.23862C127.976 10.2331 130.22 15.6509 130.22 21.3V108.92C130.22 111.721 129.667 114.495 128.594 117.083C127.52 119.67 125.947 122.021 123.964 123.999C121.981 125.978 119.627 127.546 117.037 128.613C114.447 129.68 111.671 130.227 108.87 130.22ZM21.25 6.28C17.2718 6.28 13.4564 7.86036 10.6434 10.6734C7.83035 13.4864 6.25 17.3018 6.25 21.28V108.9C6.25 112.878 7.83035 116.694 10.6434 119.507C13.4564 122.32 17.2718 123.9 21.25 123.9H108.87C112.848 123.9 116.664 122.32 119.477 119.507C122.29 116.694 123.87 112.878 123.87 108.9V21.3C123.87 17.3218 122.29 13.5064 119.477 10.6934C116.664 7.88035 112.848 6.3 108.87 6.3L21.25 6.28Z" fill="white"/><path d="M81.61 68.7305C81.61 74.9505 80.2033 79.6472 77.39 82.8206C74.5767 85.9939 70.4233 87.5806 64.93 87.5806C59.4567 87.5806 55.3533 86.0005 52.62 82.8405C49.8867 79.6805 48.5133 74.9772 48.5 68.7305V28.3105H32.5V71.3105C32.5 81.5839 35.1967 89.2505 40.59 94.3105C45.9833 99.3705 54.19 101.907 65.21 101.921C76.0633 101.921 84.18 99.3839 89.56 94.3105C94.94 89.2372 97.6367 81.5705 97.65 71.3105V43.1105L81.65 50.8205L81.61 68.7305ZM81.61 28.3105V47.4706L97.61 39.7706V28.3105H81.61Z" fill="white"/><path d="M173.678 0H253.22C253.22 6.89563 250.221 13.5088 244.885 18.3848C239.548 23.2607 232.309 26 224.762 26H145.22C145.22 19.1044 148.218 12.4912 153.555 7.61523C158.892 2.73928 166.13 0 173.678 0Z" fill="white"/><path d="M243.16 35H171.03C167.64 34.9987 164.283 35.6654 161.151 36.962C158.019 38.2586 155.173 40.1597 152.776 42.5566C150.379 44.9536 148.478 47.7994 147.182 50.9314C145.885 54.0634 145.218 57.4202 145.22 60.81V130.17C152.065 130.17 158.63 127.451 163.47 122.61C168.31 117.77 171.03 111.205 171.03 104.36V60.81H217.36C224.203 60.8073 230.766 58.0869 235.604 53.2469C240.442 48.4069 243.16 41.8435 243.16 35Z" fill="white"/></svg>